<?xml version="1.0" encoding="UTF-8"?>
<svg id="Layer_2" data-name="Layer 2" xmlns="http://www.w3.org/2000/svg" viewBox="0 0 18.88 19.03">
  <defs>
    <style>
      .cls-1 {
        fill: #444aeb;
      }

      .cls-2 {
        fill: #333;
      }
    </style>
  </defs>
  <g id="Layer_1-2" data-name="Layer 1">
    <g>
      <path class="cls-1" d="M4.28,9.92c-.99.78-2.59,0-3.01-1.2s.02-2.51.6-3.63C2.9,3.11,4.52,1.32,6.63.61c.94-.32,2.06-.38,2.84.23.4.32.67.78.86,1.26.72,1.86.35,4.1-.93,5.62,1.64-.98,3.54-1.98,5.38-1.46,1.29.37,2.28,1.44,2.89,2.64.87,1.7,1.09,3.74.49,5.55s-2.04,3.35-3.85,3.96c-.73.25-1.57.34-2.27.02-.5-.23-.89-.65-1.24-1.08-1.09-1.36-1.85-2.98-2.21-4.69.02,2.99-2.73,5.72-5.72,5.66-.62-.01-1.27-.14-1.74-.55-.55-.48-.73-1.26-.75-1.99-.06-2.42,1.6-4.78,3.89-5.56"/>
      <path class="cls-2" d="M4.09,9.6c-.51.37-1.12.3-1.64-.01-.6-.37-.92-.97-.97-1.67-.11-1.53.84-3.1,1.73-4.27S5.28,1.47,6.67.99c.69-.24,1.51-.38,2.2-.08s1.07,1.09,1.27,1.8c.45,1.62.06,3.44-1,4.74-.26.31.06.82.45.59,1.63-.97,3.72-2.15,5.63-1.22,1.6.78,2.52,2.63,2.81,4.31.32,1.83-.13,3.77-1.34,5.19-.99,1.17-3.08,2.57-4.64,1.69-.87-.5-1.49-1.55-1.96-2.4-.53-.96-.9-1.98-1.13-3.05-.09-.42-.73-.32-.74.1-.01,2.34-1.75,4.48-3.98,5.11-1.19.33-2.89.34-3.34-1.07-.36-1.15-.06-2.5.5-3.53.64-1.19,1.69-2.14,2.97-2.59.45-.16.26-.88-.2-.72C1.53,10.8-.47,13.73.1,16.58c.14.73.53,1.41,1.2,1.77s1.46.41,2.2.34c1.4-.15,2.7-.82,3.68-1.81,1.11-1.12,1.79-2.61,1.8-4.19l-.74.1c.24,1.1.63,2.17,1.17,3.16.49.89,1.1,1.85,1.9,2.49,1.65,1.31,4.01.26,5.37-.99,1.52-1.39,2.29-3.44,2.19-5.49s-1.01-4.2-2.7-5.42c-2.24-1.6-4.87-.36-6.95.87l.45.59c1.16-1.41,1.64-3.28,1.29-5.08-.17-.85-.53-1.78-1.22-2.34S8.17-.08,7.33.05c-1.81.28-3.41,1.52-4.53,2.92S.54,6.28.76,8.14c.11.91.6,1.7,1.41,2.15.72.39,1.61.46,2.3-.04.39-.28.01-.93-.38-.65h0Z"/>
    </g>
  </g>
</svg>